<?xml version="1.0" encoding="UTF-8"?><svg id="Capa_2" xmlns="http://www.w3.org/2000/svg" viewBox="0 0 149.82 40.43"><defs><style>.cls-1{fill:#005888;}</style></defs><g id="Capa_1-2"><g><path class="cls-1" d="M23.84,32.66v7.33H0V.43H9.18V32.66h14.66Z"/><path class="cls-1" d="M66.36,20.2c0,2.86-.49,5.52-1.48,7.98-.99,2.46-2.38,4.6-4.17,6.42-1.79,1.82-3.95,3.24-6.48,4.28-2.52,1.03-5.33,1.55-8.4,1.55s-5.88-.52-8.42-1.55-4.7-2.46-6.5-4.28c-1.8-1.82-3.19-3.96-4.18-6.42-.99-2.46-1.48-5.12-1.48-7.98s.49-5.52,1.48-7.98c.99-2.46,2.38-4.6,4.18-6.41s3.97-3.23,6.5-4.26,5.34-1.55,8.42-1.55,5.88,.52,8.4,1.56c2.53,1.04,4.68,2.47,6.48,4.28,1.79,1.81,3.18,3.95,4.17,6.41,.99,2.46,1.48,5.11,1.48,7.96Zm-9.39,0c0-1.96-.25-3.72-.76-5.28-.51-1.57-1.24-2.89-2.19-3.98-.95-1.09-2.11-1.92-3.49-2.5-1.38-.58-2.94-.87-4.7-.87s-3.35,.29-4.74,.87c-1.38,.58-2.55,1.41-3.5,2.5-.95,1.09-1.68,2.41-2.19,3.98-.51,1.57-.76,3.33-.76,5.28s.25,3.74,.76,5.31c.51,1.57,1.24,2.89,2.19,3.98,.95,1.09,2.12,1.91,3.5,2.48,1.38,.57,2.96,.86,4.74,.86s3.32-.29,4.7-.86c1.38-.57,2.54-1.4,3.49-2.48,.95-1.09,1.68-2.41,2.19-3.98,.51-1.57,.76-3.33,.76-5.31Z"/><path class="cls-1" d="M90.77,19.49h14.06v16.7c-2.03,1.48-4.19,2.56-6.48,3.23-2.29,.67-4.68,1-7.18,1-3.26,0-6.22-.51-8.89-1.53-2.67-1.02-4.96-2.43-6.86-4.24-1.9-1.8-3.37-3.94-4.4-6.41s-1.55-5.15-1.55-8.05,.49-5.66,1.47-8.13,2.38-4.6,4.19-6.39c1.82-1.79,4.02-3.19,6.6-4.18,2.58-1,5.46-1.49,8.65-1.49,1.65,0,3.19,.14,4.64,.41s2.78,.64,4,1.11,2.34,1.03,3.35,1.68c1.01,.65,1.92,1.36,2.72,2.12l-2.66,4.05c-.42,.63-.96,1.02-1.62,1.17-.66,.15-1.37-.02-2.13-.49-.72-.43-1.41-.81-2.05-1.13-.64-.32-1.3-.57-1.97-.77-.67-.2-1.38-.34-2.12-.43-.74-.09-1.57-.14-2.5-.14-1.72,0-3.27,.3-4.64,.91s-2.55,1.46-3.52,2.57-1.71,2.43-2.24,3.98c-.53,1.55-.79,3.27-.79,5.17,0,2.1,.29,3.96,.87,5.59,.58,1.63,1.4,3,2.46,4.13,1.06,1.12,2.33,1.98,3.8,2.57,1.48,.59,3.11,.88,4.9,.88,1.1,0,2.1-.11,3-.33s1.77-.51,2.62-.87v-6h-3.91c-.58,0-1.03-.15-1.36-.46-.33-.31-.49-.7-.49-1.17v-5.05Z"/><path class="cls-1" d="M149.82,20.2c0,2.86-.49,5.52-1.48,7.98-.99,2.46-2.38,4.6-4.17,6.42-1.79,1.82-3.95,3.24-6.48,4.28-2.52,1.03-5.33,1.55-8.4,1.55s-5.88-.52-8.42-1.55-4.7-2.46-6.5-4.28c-1.8-1.82-3.19-3.96-4.18-6.42-.99-2.46-1.48-5.12-1.48-7.98s.49-5.52,1.48-7.98c.99-2.46,2.38-4.6,4.18-6.41s3.97-3.23,6.5-4.26,5.34-1.55,8.42-1.55,5.88,.52,8.4,1.56c2.53,1.04,4.68,2.47,6.48,4.28,1.79,1.81,3.18,3.95,4.17,6.41,.99,2.46,1.48,5.11,1.48,7.96Zm-9.39,0c0-1.96-.25-3.72-.76-5.28-.51-1.57-1.24-2.89-2.19-3.98-.95-1.09-2.11-1.92-3.49-2.5-1.38-.58-2.94-.87-4.7-.87s-3.35,.29-4.74,.87c-1.38,.58-2.55,1.41-3.5,2.5-.95,1.09-1.68,2.41-2.19,3.98-.51,1.57-.76,3.33-.76,5.28s.25,3.74,.76,5.31c.51,1.57,1.24,2.89,2.19,3.98,.95,1.09,2.12,1.91,3.5,2.48,1.38,.57,2.96,.86,4.74,.86s3.32-.29,4.7-.86c1.38-.57,2.54-1.4,3.49-2.48,.95-1.09,1.68-2.41,2.19-3.98,.51-1.57,.76-3.33,.76-5.31Z"/></g></g></svg>